<?xml version="1.0" encoding="UTF-8"?>
<!-- Generator: Adobe Illustrator 12.0.0, SVG Export Plug-In . SVG Version: 6.00 Build 51448)  -->
<!DOCTYPE svg PUBLIC "-//W3C//DTD SVG 1.0//EN" "http://www.w3.org/TR/2001/REC-SVG-20010904/DTD/svg10.dtd" [
	<!ENTITY ns_svg "http://www.w3.org/2000/svg">
	<!ENTITY ns_xlink "http://www.w3.org/1999/xlink">
]>
<svg version="1.0" id="Calque_1" xmlns="http://www.w3.org/2000/svg" xmlns:xlink="http://www.w3.org/1999/xlink" width="210.5" height="204.094" viewBox="0 0 210.5 204.094" overflow="visible" enable-background="new 0 0 210.5 204.094" xml:space="preserve">
<g>
	<path fill="#FFFFFF" d="M210.338,163.131c1.007,5.722-2.821,11.193-8.558,12.198L39.591,203.932   c-5.73,1.013-11.195-2.817-12.207-8.539L0.163,40.976c-1.016-5.734,2.818-11.206,8.548-12.219L170.903,0.163   c5.72-1.015,11.193,2.817,12.196,8.549L210.338,163.131z"/>
	<path fill="#A3C208" d="M167.059,37.563H63.176c-4.433,0-8.062,3.63-8.062,8.065V62.03l77.136-13.604   c4.368-0.77,8.572,2.174,9.345,6.543l18.074,102.617h7.39c4.435,0,8.071-3.638,8.071-8.071V45.628   C175.13,41.193,171.494,37.563,167.059,37.563"/>
	<path fill="#003A80" d="M55.114,149.515V62.032l-25.168,4.434c-4.364,0.772-7.311,4.972-6.541,9.349L41.444,178.12   c0.772,4.368,4.98,7.313,9.345,6.541l102.293-18.045c4.271-0.742,7.166-4.78,6.587-9.031H55.114V149.515z"/>
	<path fill="#259BD2" d="M159.669,155.757l-0.274,0.227l-17.8-101.014c-0.772-4.37-4.98-7.313-9.349-6.543L55.114,62.028v87.487   v8.071h104.555V155.757z"/>
	<g>
		<rect x="42.813" y="127.72" fill="#FFFFFF" width="5.344" height="29.86"/>
	</g>
	<path fill="#FFFFFF" d="M67.911,127.776v5.405h-3.017c-1.626,0-4.378,1.191-4.378,5.632v18.768h-5.405v-29.805h5.405v2.52   l0.507-0.641c0.972-1.234,2.562-1.879,4.607-1.879H67.911z"/>
	<path fill="#FFFFFF" d="M81.656,127.374c6.261,0,10.486,3.66,11.037,9.557v0.002h-5.519v-0.002   c-0.479-2.824-2.362-4.256-5.631-4.256c-4.233,0-5.121,1.937-5.121,3.57c0,1.162,1.003,2.126,2.669,2.564   c0.844,0.237,1.796,0.48,2.791,0.717c1.644,0.416,3.356,0.837,4.836,1.33c4.046,1.331,6.367,4.103,6.367,7.617   c0,6.083-4.102,9.554-11.258,9.554c-6.471,0-10.877-4.016-11.204-10.224h5.401c0.423,3.981,3.388,4.819,5.803,4.819   c3.919,0,5.913-1.384,5.913-4.149c0-1.331-1.054-2.404-2.892-2.954c-1.614-0.518-3.2-0.913-4.794-1.285   c-0.789-0.196-1.583-0.376-2.378-0.586c-4.135-1.078-6.596-3.836-6.596-7.403C71.08,130.688,75.037,127.374,81.656,127.374"/>
	<path fill="#FFFFFF" d="M127.611,127.313c6.881,0,11.315,4.27,11.315,10.873v6.42h-17.228v2.566c0,2.072,0.769,5.569,5.912,5.569   c3.072,0,5.117-1.809,5.631-4.938h5.563c-0.783,6.372-5.074,10.346-11.194,10.346c-6.88,0-11.319-4.306-11.319-10.977v-8.986   C116.292,131.694,120.845,127.313,127.611,127.313 M121.699,139.257h11.766v-1.071c0-1.679-0.564-5.571-5.854-5.571   c-3.749,0-5.912,2.034-5.912,5.571V139.257z"/>
	<path fill="#FFFFFF" d="M154.697,127.172c-5.015,0-10.348,3.015-10.935,9.746l-0.012,0.154h5.669l0.028-0.125   c0.517-3.659,3.549-4.191,5.312-4.191c3.41,0,4.918,1.412,4.918,4.574v1.907h-6.782c-6.219,0-10.223,3.5-10.223,8.891   c0,6.94,5.325,10.101,10.262,10.101c2.574,0,5.062-0.863,6.508-2.269l0.224-0.203v1.829h5.76v-20.431   C165.425,127.904,157.216,127.172,154.697,127.172 M159.818,144.843v2.387c0,3.541-3.221,5.739-6.194,5.739   c-1.638,0-5.466-0.462-5.466-4.841c0-2.272,1.743-3.567,4.776-3.567h6.884V144.843z"/>
	<path fill="#FFFFFF" d="M49.073,120.276c0,2.139-1.724,3.854-3.843,3.854c-2.131,0-3.855-1.715-3.855-3.854   c0-2.121,1.724-3.835,3.855-3.835C47.349,116.441,49.073,118.155,49.073,120.276"/>
	<path fill="#FFFFFF" d="M105.542,117.025v10.753h6.193v5.403h-6.193v16.606c0,1.604,0.81,2.449,2.327,2.449h3.988v5.344h-4.21   c-4.762,0-7.501-2.929-7.501-8.014v-16.386h-5.408v-5.403h5.408v-10.753H105.542z"/>
</g>
</svg>