<?xml version="1.0" encoding="UTF-8" standalone="no"?>
<!-- Created with Inkscape (http://www.inkscape.org/) -->

<svg
   xmlns:dc="http://purl.org/dc/elements/1.1/"
   xmlns:cc="http://creativecommons.org/ns#"
   xmlns:rdf="http://www.w3.org/1999/02/22-rdf-syntax-ns#"
   xmlns:svg="http://www.w3.org/2000/svg"
   xmlns="http://www.w3.org/2000/svg"
   xmlns:sodipodi="http://sodipodi.sourceforge.net/DTD/sodipodi-0.dtd"
   xmlns:inkscape="http://www.inkscape.org/namespaces/inkscape"
   id="svg2"
   version="1.1"
   inkscape:version="0.91 r13725"
   xml:space="preserve"
   width="500"
   height="500"
   viewBox="0 0 500 500"
   sodipodi:docname="logo_airGR.svg"
   inkscape:export-filename="\\anasdata.cemagref.fr\Projets\hban\Equipes\Hydro\ADMINISTRATIF\EQUIPE\PRATIQUE\Logo\airGR\path14.png"
   inkscape:export-xdpi="90"
   inkscape:export-ydpi="90"><metadata
     id="metadata8"><rdf:RDF><cc:Work
         rdf:about=""><dc:format>image/svg+xml</dc:format><dc:type
           rdf:resource="http://purl.org/dc/dcmitype/StillImage" /><dc:title></dc:title></cc:Work></rdf:RDF></metadata><defs
     id="defs6" /><sodipodi:namedview
     pagecolor="#ffffff"
     bordercolor="#666666"
     borderopacity="1"
     objecttolerance="10"
     gridtolerance="10"
     guidetolerance="10"
     inkscape:pageopacity="0"
     inkscape:pageshadow="2"
     inkscape:window-width="1920"
     inkscape:window-height="1132"
     id="namedview4"
     showgrid="false"
     inkscape:zoom="0.67428572"
     inkscape:cx="144.94549"
     inkscape:cy="175"
     inkscape:window-x="-8"
     inkscape:window-y="-8"
     inkscape:window-maximized="1"
     inkscape:current-layer="g12" /><g
     id="g10"
     inkscape:groupmode="layer"
     inkscape:label="logo_airGR"
     transform="matrix(1.25,0,0,-1.25,0,500)"><g
       id="g12"><path
         d="m 309.582,207.133 c 0,0 9.684,-2.922 15.313,-5.77 1.949,-0.984 5.328,-2.957 7.765,-5.547 2.387,-2.535 3.547,-5.101 3.547,-5.101 l 38.168,-64.348 -61.687,-0.027 -28.844,54.168 c 0,0 -5.906,10.148 -9.539,13.09 -3.035,2.457 -4.328,3.328 -7.325,3.328 l -14.656,0 0.012,-70.547 -54.582,-0.024 0,180.211 109.609,0 c 0,0 49.926,-0.902 49.926,-48.398 0,-47.5 -47.707,-51.035 -47.707,-51.035 z m -23.742,60.344 -33.043,0.019 -0.016,-30.641 33.059,0.012 c 0,0 15.312,0.047 15.312,15.586 0,15.852 -15.312,15.024 -15.312,15.024 z"
         style="fill:#a4c400;fill-opacity:1;fill-rule:evenodd;stroke:none"
         id="path16"
         inkscape:connector-curvature="0" /><path
         d="m 225.91,373.105 c -88.363,0 -160,-47.976 -160,-107.16 0,-59.179 71.637,-107.156 160,-107.156 23.008,0 44.879,3.258 64.649,9.113 l -6.715,12.606 c 0,0 -1.617,2.765 -3.668,5.824 -9.426,-1.094 -19.387,-1.637 -29.774,-1.637 -67.168,0 -121.613,32.801 -121.613,73.258 0,40.457 54.445,73.258 121.613,73.258 15.606,0 30.262,-1.215 43.567,-3.711 l 3.269,5.672 13.637,23.582 c -24.621,10.355 -53.746,16.351 -84.965,16.351 z m 54.266,-186.773 c 1.39,0.16 2.765,0.34 4.133,0.523 -1.368,-0.183 -2.743,-0.363 -4.133,-0.523 z m 4.133,0.523 c 0.625,0.086 1.242,0.172 1.859,0.262 -0.617,-0.09 -1.234,-0.176 -1.859,-0.262 z m 1.859,0.262 c 1.312,0.192 2.613,0.391 3.898,0.606 -1.285,-0.215 -2.589,-0.414 -3.898,-0.606 z m 4.391,-19.215 c 1.062,0.313 2.117,0.637 3.164,0.965 -1.047,-0.328 -2.102,-0.652 -3.164,-0.965 z M 384.914,254 367.023,253.977 c -1.347,-25.481 -15.687,-43.426 -38.625,-54.661 1.454,-0.964 2.985,-2.144 4.262,-3.5 2.387,-2.535 3.551,-5.101 3.551,-5.101 l 1.019,-1.723 c 25.997,16.875 43.477,39.598 47.684,65.008 z m -56.516,-54.684 c -0.8,-0.39 -1.609,-0.773 -2.429,-1.148 0.82,0.375 1.629,0.758 2.429,1.148 z m -2.429,-1.148 c -0.156,-0.07 -0.317,-0.141 -0.473,-0.211 0.156,0.07 0.317,0.141 0.473,0.211 z m -0.473,-0.211 c -0.652,-0.297 -1.308,-0.586 -1.976,-0.871 0.664,0.285 1.324,0.574 1.976,0.871 z m -1.976,-0.871 c -0.219,-0.094 -0.442,-0.184 -0.665,-0.277 0.223,0.093 0.446,0.183 0.665,0.277 z m -0.665,-0.277 c -0.652,-0.274 -1.312,-0.547 -1.976,-0.809 0.664,0.262 1.324,0.535 1.976,0.809 z M 320.879,196 c -0.168,-0.07 -0.336,-0.137 -0.508,-0.203 0.172,0.066 0.34,0.133 0.508,0.203 z m -0.508,-0.203 c -0.851,-0.336 -1.707,-0.664 -2.578,-0.981 0.871,0.317 1.727,0.645 2.578,0.981 z m -2.578,-0.981 c -0.93,-0.339 -1.867,-0.671 -2.816,-0.992 0.949,0.321 1.886,0.653 2.816,0.992 z m -2.816,-0.992 c -0.864,-0.293 -1.735,-0.578 -2.618,-0.855 0.883,0.277 1.754,0.562 2.618,0.855 z m -2.618,-0.855 c -0.199,-0.063 -0.398,-0.125 -0.597,-0.188 0.199,0.063 0.398,0.125 0.597,0.188 z m -0.597,-0.188 c -0.785,-0.246 -1.574,-0.484 -2.375,-0.718 0.797,0.234 1.59,0.472 2.375,0.718 z m -2.375,-0.718 c -0.121,-0.036 -0.242,-0.071 -0.364,-0.106 0.122,0.035 0.243,0.07 0.364,0.106 z m -0.364,-0.106 c -2.898,-0.836 -5.882,-1.602 -8.945,-2.289 3.063,0.687 6.047,1.453 8.945,2.289 z m -8.945,-2.289 c -0.07,-0.016 -0.144,-0.031 -0.215,-0.051 0.071,0.02 0.145,0.035 0.215,0.051 z m -0.215,-0.051 c -0.98,-0.219 -1.972,-0.429 -2.968,-0.633 0.996,0.204 1.988,0.414 2.968,0.633 z m 37.328,-0.652 c -0.816,-0.531 -1.644,-1.055 -2.476,-1.574 0.832,0.519 1.66,1.043 2.476,1.574 z m -40.418,-0.008 c -0.628,-0.129 -1.269,-0.246 -1.906,-0.371 0.637,0.125 1.278,0.242 1.906,0.371 z m -1.906,-0.371 c -1.074,-0.207 -2.16,-0.406 -3.254,-0.598 1.094,0.192 2.18,0.391 3.254,0.598 z m -3.254,-0.598 c -0.433,-0.074 -0.859,-0.156 -1.293,-0.226 0.434,0.07 0.86,0.152 1.293,0.226 z m 42.989,-0.664 c -0.836,-0.519 -1.68,-1.031 -2.532,-1.539 0.852,0.508 1.696,1.02 2.532,1.539 z m -2.532,-1.539 c -0.879,-0.523 -1.765,-1.039 -2.664,-1.547 0.899,0.508 1.785,1.024 2.664,1.547 z m -2.664,-1.547 c -0.89,-0.508 -1.793,-1.011 -2.703,-1.504 0.91,0.493 1.813,0.996 2.703,1.504 z m -2.718,-1.515 c -0.903,-0.489 -1.809,-0.973 -2.727,-1.45 0.918,0.477 1.824,0.961 2.727,1.45 z m -2.817,-1.496 c -0.902,-0.469 -1.808,-0.93 -2.726,-1.383 0.918,0.453 1.824,0.914 2.726,1.383 z m -2.793,-1.418 c -0.926,-0.461 -1.863,-0.914 -2.808,-1.364 0.945,0.45 1.882,0.903 2.808,1.364 z m -2.808,-1.364 c -0.938,-0.445 -1.879,-0.882 -2.832,-1.312 0.953,0.43 1.894,0.867 2.832,1.312 z m -2.832,-1.312 c -0.102,-0.047 -0.204,-0.094 -0.305,-0.137 0.101,0.043 0.203,0.09 0.305,0.137 z m -0.305,-0.137 c -0.891,-0.402 -1.785,-0.801 -2.688,-1.187 0.903,0.386 1.797,0.785 2.688,1.187 z m -2.836,-1.25 c -0.918,-0.394 -1.84,-0.785 -2.77,-1.168 0.93,0.383 1.852,0.774 2.77,1.168 z m -2.77,-1.168 c -0.172,-0.074 -0.347,-0.14 -0.519,-0.211 0.172,0.071 0.347,0.137 0.519,0.211 z m -0.519,-0.211 c -0.856,-0.347 -1.711,-0.695 -2.574,-1.031 0.863,0.336 1.718,0.684 2.574,1.031 z m -2.832,-1.129 c -0.946,-0.371 -1.895,-0.734 -2.856,-1.09 0.961,0.356 1.91,0.723 2.856,1.09 z m -3.004,-1.144 c -0.961,-0.352 -1.926,-0.703 -2.895,-1.047 0.969,0.344 1.934,0.691 2.895,1.047 z m -2.895,-1.047 c -0.211,-0.07 -0.422,-0.141 -0.629,-0.215 0.207,0.074 0.418,0.145 0.629,0.215 z m -0.629,-0.215 c -0.859,-0.301 -1.722,-0.598 -2.589,-0.887 0.867,0.289 1.73,0.586 2.589,0.887 z m -2.918,-0.992 c -0.968,-0.32 -1.937,-0.637 -2.917,-0.945 0.98,0.308 1.949,0.625 2.917,0.945 z"
         style="fill:#009ee0;fill-opacity:1;fill-rule:evenodd;stroke:none"
         id="path18"
         inkscape:connector-curvature="0" /><path
         d="m 317.16,253.953 53.25,0 0,-15.215 -53.25,0 0,15.215 z"
         style="fill:#009ee0;fill-opacity:1;fill-rule:nonzero;stroke:none"
         id="path20"
         inkscape:connector-curvature="0" /><path
         d="m 328.398,199.316 c -13.425,-6.574 -29.796,-10.843 -48.222,-12.984 2.051,-3.059 3.668,-5.824 3.668,-5.824 l 6.715,-12.606 c 17.41,5.157 33.187,12.336 46.671,21.09 l -1.019,1.723 c 0,0 -1.164,2.566 -3.551,5.101 -1.277,1.356 -2.808,2.536 -4.262,3.5 z"
         style="fill:#a4c400;fill-opacity:1;fill-rule:evenodd;stroke:none"
         id="path22"
         inkscape:connector-curvature="0" /><text
         transform="scale(1,-1)"
         style="font-variant:normal;font-weight:bold;font-size:144px;font-family:Arial;-inkscape-font-specification:Arial-BoldMT;writing-mode:lr-tb;fill:#003a80;fill-opacity:1;fill-rule:nonzero;stroke:none"
         id="text24"
         x="10.969592"
         y="-126.69145"><tspan
           x="10.969592"
           y="-126.69145"
           id="tspan26">a</tspan></text>
<text
         transform="scale(1,-1)"
         style="font-variant:normal;font-weight:bold;font-size:144px;font-family:Arial;-inkscape-font-specification:Arial-BoldMT;writing-mode:lr-tb;fill:#003a80;fill-opacity:1;fill-rule:nonzero;stroke:none"
         id="text32"
         x="91.125839"
         y="-126.69145"><tspan
           x="91.125839"
           y="-126.69145"
           id="tspan34">i</tspan></text>
<g
         id="g36"
         transform="matrix(1,0,0,-1,0,392)"><path
           d="m 101.469,180.512 0,-18.282 19.75,0 0,18.282 -19.75,0 z m 0,84.797 0,-74.672 19.75,0 0,74.672 -19.75,0 z"
           style="fill:none;stroke:#003a80;stroke-width:0.80000001;stroke-linecap:butt;stroke-linejoin:miter;stroke-miterlimit:4;stroke-dasharray:none;stroke-opacity:1"
           id="path38"
           inkscape:connector-curvature="0" /></g><text
         transform="scale(1,-1)"
         style="font-variant:normal;font-weight:bold;font-size:144px;font-family:Arial;-inkscape-font-specification:Arial-BoldMT;writing-mode:lr-tb;fill:#003a80;fill-opacity:1;fill-rule:nonzero;stroke:none"
         id="text40"
         x="131.06334"
         y="-126.69145"><tspan
           x="131.06334"
           y="-126.69145"
           id="tspan42">r</tspan></text>
<g
         id="g44"
         transform="matrix(1,0,0,-1,0,392)"><path
           d="m 160.313,265.309 -19.75,0 0,-74.672 18.343,0 0,10.609 c 3.145,-5.008 5.969,-8.312 8.469,-9.906 2.508,-1.594 5.359,-2.391 8.547,-2.391 4.5,0 8.836,1.242 13.016,3.719 l -6.125,17.234 c -3.325,-2.156 -6.418,-3.234 -9.282,-3.234 -2.761,0 -5.105,0.762 -7.031,2.281 -1.918,1.524 -3.43,4.278 -4.531,8.266 -1.106,3.98 -1.656,12.324 -1.656,25.031 l 0,23.063 z"
           style="fill:none;stroke:#003a80;stroke-width:0.80000001;stroke-linecap:butt;stroke-linejoin:miter;stroke-miterlimit:4;stroke-dasharray:none;stroke-opacity:1"
           id="path46"
           inkscape:connector-curvature="0" /></g><text
         xml:space="preserve"
         style="font-style:normal;font-weight:normal;font-size:32px;line-height:300%;font-family:Sans;letter-spacing:0px;word-spacing:0px;fill:#000000;fill-opacity:1;stroke:none;stroke-width:1px;stroke-linecap:butt;stroke-linejoin:miter;stroke-opacity:1"
         x="13.857635"
         y="-51.932228"
         id="text4148"
         sodipodi:linespacing="300%"
         transform="scale(1,-1)"><tspan
           sodipodi:role="line"
           id="tspan4150"
           x="13.857635"
           y="-51.932228"
           style="font-style:italic;font-variant:normal;font-weight:normal;font-stretch:normal;font-size:144px;line-height:300%;font-family:'Brush Script MT';-inkscape-font-specification:'Brush Script MT, Italic';text-align:start;writing-mode:lr-tb;text-anchor:start;fill:#666666;fill-opacity:1">teaching</tspan></text>
<flowRoot
         xml:space="preserve"
         id="flowRoot4152"
         style="fill:black;stroke:none;stroke-opacity:1;stroke-width:1px;stroke-linejoin:miter;stroke-linecap:butt;fill-opacity:1;font-family:Sans;font-style:normal;font-weight:normal;font-size:40px;line-height:125%;letter-spacing:0px;word-spacing:0px"><flowRegion
           id="flowRegion4154"><rect
             id="rect4156"
             width="822.16144"
             height="180.37215"
             x="-201.34566"
             y="331.16327" /></flowRegion><flowPara
           id="flowPara4158"></flowPara></flowRoot></g></g></svg>