<?xml version="1.0" encoding="UTF-8" standalone="no"?>
<!-- Created with Inkscape (http://www.inkscape.org/) -->

<svg
   xmlns:dc="http://purl.org/dc/elements/1.1/"
   xmlns:cc="http://creativecommons.org/ns#"
   xmlns:rdf="http://www.w3.org/1999/02/22-rdf-syntax-ns#"
   xmlns:svg="http://www.w3.org/2000/svg"
   xmlns="http://www.w3.org/2000/svg"
   xmlns:sodipodi="http://sodipodi.sourceforge.net/DTD/sodipodi-0.dtd"
   xmlns:inkscape="http://www.inkscape.org/namespaces/inkscape"
   id="svg2"
   version="1.1"
   inkscape:version="0.91 r13725"
   xml:space="preserve"
   width="210.5"
   height="204.09399"
   viewBox="0 0 210.5 204.09399"
   sodipodi:docname="logo_airGR.svg"
   inkscape:export-filename="\\anasdata.cemagref.fr\Projets\hban\Equipes\Hydro\ADMINISTRATIF\EQUIPE\PRATIQUE\Logo\airGR\path14.png"
   inkscape:export-xdpi="90"
   inkscape:export-ydpi="90"><metadata
     id="metadata8"><rdf:RDF><cc:Work
         rdf:about=""><dc:format>image/svg+xml</dc:format><dc:type
           rdf:resource="http://purl.org/dc/dcmitype/StillImage" /><dc:title></dc:title></cc:Work></rdf:RDF></metadata><defs
     id="defs6" /><sodipodi:namedview
     pagecolor="#d5d5d5"
     bordercolor="#666666"
     borderopacity="1"
     objecttolerance="10"
     gridtolerance="10"
     guidetolerance="10"
     inkscape:pageopacity="0.24313725"
     inkscape:pageshadow="2"
     inkscape:window-width="1920"
     inkscape:window-height="1132"
     id="namedview4"
     showgrid="false"
     inkscape:zoom="1.907168"
     inkscape:cx="263.91861"
     inkscape:cy="173.8796"
     inkscape:window-x="-8"
     inkscape:window-y="-8"
     inkscape:window-maximized="1"
     inkscape:current-layer="g12" /><g
     id="g10"
     inkscape:groupmode="layer"
     inkscape:label="logo_airGR"
     transform="matrix(1.25,0,0,-1.25,0,204.09399)"><g
       id="g12"><path
         style="fill:#ffffff"
         inkscape:connector-curvature="0"
         id="path5"
         d="m 168.80393,32.929668 c 0.8056,-4.5776 -2.2568,-8.9544 -6.8464,-9.7584 L 32.206333,0.28886846 c -4.584,-0.8104 -8.956,2.25360004 -9.7656,6.83120004 L 0.66393313,130.65367 c -0.8128,4.5872 2.25439997,8.9648 6.83839997,9.7752 l 129.7535969,22.8752 c 4.576,0.812 8.9544,-2.2536 9.7568,-6.8392 l 21.7912,-123.535202 z" /><path
         d="m 127.84593,65.68993 c 0,0 3.52825,-1.064599 5.5791,-2.102233 0.7101,-0.358506 1.9412,-1.077342 2.82909,-2.020979 0.86967,-0.923602 1.29231,-1.858492 1.29231,-1.858492 l 13.90604,-23.444419 -22.47491,-0.0099 -10.50897,19.735463 c 0,0 -2.15178,3.697308 -3.47542,4.769191 -1.10576,0.895171 -1.57686,1.212512 -2.66879,1.212512 l -5.33973,0 0.004,-25.702951 -19.886297,-0.0088 0,65.657718 39.934727,0 c 0,0 18.18993,-0.32864 18.18993,-17.63323 0,-17.306056 -17.38147,-18.593992 -17.38147,-18.593992 z m -8.65012,21.985615 -12.03882,0.0067 -0.006,-11.163678 12.04464,0.0042 c 0,0 5.57875,0.01714 5.57875,5.678569 0,5.775492 -5.57875,5.47382 -5.57875,5.47382 z"
         style="fill:#a4c400;fill-opacity:1;fill-rule:evenodd;stroke:none"
         id="path16"
         inkscape:connector-curvature="0" /><path
         d="m 97.361027,126.15984 c -32.193996,0 -58.294078,-17.47948 -58.294078,-39.042466 0,-21.561159 26.100082,-39.040999 58.294078,-39.040999 8.382693,0 16.351123,1.187009 23.554093,3.320214 l -2.44653,4.592839 c 0,0 -0.58913,1.007396 -1.33639,2.121907 -3.43426,-0.398584 -7.06342,-0.596418 -10.84781,-0.596418 -24.471849,0 -44.308232,11.950647 -44.308232,26.690671 0,14.740027 19.836383,26.690672 44.308232,26.690672 5.68586,0 11.02561,-0.44266 15.87312,-1.35205 l 1.19103,2.06652 4.96848,8.59183 c -8.97037,3.77271 -19.58172,5.95728 -30.955993,5.95728 z M 117.1322,58.111335 c 0.50642,0.05828 1.00739,0.123873 1.50581,0.190551 -0.49842,-0.06665 -0.99939,-0.132261 -1.50581,-0.190551 z m 1.50581,0.190551 c 0.2277,0.03135 0.4525,0.06263 0.67731,0.09546 -0.22481,-0.03278 -0.44961,-0.06414 -0.67731,-0.09546 z m 0.67731,0.09546 c 0.478,0.06999 0.952,0.142461 1.42018,0.220795 -0.46818,-0.07835 -0.94326,-0.15084 -1.42018,-0.220795 z m 1.5998,-7.000748 c 0.38693,0.11403 0.7713,0.232084 1.15276,0.351583 -0.38146,-0.119499 -0.76583,-0.237553 -1.15276,-0.351583 z m 34.37712,31.368768 -6.51837,-0.0083 c -0.49077,-9.283736 -5.71537,-15.82178 -14.07256,-19.915114 0.52974,-0.351225 1.08755,-0.781141 1.55281,-1.275185 0.86967,-0.923602 1.29376,-1.858493 1.29376,-1.858493 l 0.37126,-0.62775 c 9.4717,6.148206 15.84032,14.427056 17.3731,23.684882 z M 134.70131,62.841908 c -0.29147,-0.142093 -0.58623,-0.281636 -0.88498,-0.41826 0.29875,0.136624 0.59351,0.276167 0.88498,0.41826 z m -0.88498,-0.41826 c -0.0569,-0.02551 -0.11549,-0.05135 -0.17232,-0.07684 0.0568,0.0255 0.11549,0.05134 0.17232,0.07684 z m -0.17232,-0.07684 c -0.23756,-0.108211 -0.47657,-0.213504 -0.71994,-0.317342 0.24192,0.103835 0.48238,0.209131 0.71994,0.317342 z m -0.71994,-0.317342 c -0.0797,-0.03428 -0.16104,-0.06706 -0.24228,-0.100918 0.0813,0.03387 0.16249,0.06665 0.24228,0.100918 z m -0.24228,-0.100929 c -0.23756,-0.09982 -0.47802,-0.199289 -0.71994,-0.294747 0.24192,0.09546 0.48238,0.194923 0.71994,0.294747 z m -0.71994,-0.294747 c -0.0612,-0.02551 -0.12241,-0.04992 -0.18509,-0.07392 0.0627,0.02408 0.12389,0.0485 0.18509,0.07392 z m -0.18509,-0.07392 c -0.31004,-0.122417 -0.62192,-0.241916 -0.93926,-0.357419 0.31734,0.115503 0.62922,0.235002 0.93926,0.357419 z m -0.93926,-0.357419 c -0.33883,-0.123505 -0.68022,-0.244468 -1.02597,-0.361416 0.34575,0.116948 0.68714,0.237911 1.02597,0.361416 z m -1.02597,-0.361416 c -0.31479,-0.106753 -0.63213,-0.210595 -0.95383,-0.311514 0.3217,0.100918 0.63904,0.204757 0.95383,0.311514 z m -0.95383,-0.311514 c -0.0725,-0.02291 -0.14502,-0.04557 -0.21752,-0.06849 0.0725,0.02291 0.14501,0.04557 0.21752,0.06849 z m -0.21752,-0.06849 c -0.28601,-0.08963 -0.57346,-0.176343 -0.8653,-0.261601 0.29038,0.08526 0.57929,0.17197 0.8653,0.261601 z m -0.8653,-0.261601 c -0.0441,-0.01313 -0.0882,-0.02584 -0.13263,-0.03864 0.0445,0.01271 0.0885,0.02551 0.13263,0.03864 z m -0.13263,-0.03864 c -1.05584,-0.30459 -2.14303,-0.583667 -3.25899,-0.83397 1.11596,0.250303 2.20315,0.52938 3.25899,0.83397 z m -3.25899,-0.83397 c -0.0256,-0.0058 -0.0524,-0.01129 -0.0783,-0.01857 0.0259,0.0076 0.0529,0.0128 0.0783,0.01857 z m -0.0783,-0.01857 c -0.35705,-0.07977 -0.71848,-0.156299 -1.08136,-0.230628 0.36288,0.07433 0.72431,0.150839 1.08136,0.230628 z m 13.60001,-0.237542 c -0.29731,-0.19346 -0.59897,-0.38437 -0.9021,-0.573465 0.30313,0.189095 0.60479,0.380005 0.9021,0.573465 z m -14.72582,-0.0025 c -0.2288,-0.04699 -0.46235,-0.08963 -0.69443,-0.135169 0.23208,0.04557 0.46563,0.08816 0.69443,0.135169 z m -0.69443,-0.135169 c -0.3913,-0.07542 -0.78697,-0.147922 -1.18555,-0.217877 0.39858,0.06999 0.79425,0.142461 1.18555,0.217877 z m -1.18555,-0.217877 c -0.15776,-0.02692 -0.31297,-0.05686 -0.4711,-0.08236 0.15813,0.02551 0.31334,0.05536 0.4711,0.08236 z m 15.66253,-0.241904 c -0.30459,-0.189095 -0.61209,-0.375632 -0.9225,-0.560722 0.31041,0.18509 0.61791,0.371627 0.9225,0.560722 z m -0.9225,-0.560722 c -0.32027,-0.190542 -0.64307,-0.378542 -0.9706,-0.563624 0.32753,0.185082 0.65033,0.373082 0.9706,0.563624 z m -0.9706,-0.563624 c -0.32427,-0.185089 -0.65326,-0.368348 -0.98481,-0.547969 0.33155,0.179621 0.66054,0.36288 0.98481,0.547969 z m -0.99027,-0.551974 c -0.329,-0.178167 -0.65909,-0.354502 -0.99355,-0.528295 0.33446,0.173793 0.66455,0.350128 0.99355,0.528295 z m -1.02634,-0.545053 c -0.32864,-0.170874 -0.65873,-0.33883 -0.99318,-0.503876 0.33445,0.165046 0.66454,0.333002 0.99318,0.503876 z m -1.0176,-0.516629 c -0.33738,-0.167957 -0.67876,-0.333003 -1.02306,-0.496953 0.3443,0.16395 0.68568,0.328996 1.02306,0.496953 z m -1.02306,-0.496953 c -0.34175,-0.162137 -0.6846,-0.321348 -1.0318,-0.478015 0.3472,0.156667 0.69005,0.315878 1.0318,0.478015 z m -1.0318,-0.478015 c -0.0372,-0.01714 -0.0744,-0.03428 -0.11113,-0.04992 0.0367,0.01564 0.074,0.03278 0.11113,0.04992 z m -0.11113,-0.04992 c -0.32463,-0.146467 -0.65034,-0.291837 -0.97934,-0.432476 0.329,0.140639 0.65471,0.286009 0.97934,0.432476 z m -1.03326,-0.455429 c -0.33446,-0.143548 -0.67038,-0.286001 -1.00922,-0.425544 0.33884,0.139543 0.67476,0.281996 1.00922,0.425544 z m -1.00922,-0.425544 c -0.0626,-0.02692 -0.12642,-0.05101 -0.18909,-0.07685 0.0626,0.02584 0.12643,0.04992 0.18909,0.07685 z m -0.18909,-0.07685 c -0.31187,-0.126431 -0.62338,-0.253221 -0.93781,-0.37564 0.31443,0.122419 0.62594,0.249209 0.93781,0.37564 z M 126.60502,53.3412 c -0.34466,-0.135169 -0.69042,-0.26742 -1.04055,-0.397121 0.35013,0.129701 0.69589,0.263415 1.04055,0.397121 z m -1.09447,-0.416797 c -0.35013,-0.128245 -0.70171,-0.256132 -1.05476,-0.38146 0.35305,0.125328 0.70463,0.251751 1.05476,0.38146 z m -1.05476,-0.38146 c -0.0769,-0.0255 -0.15374,-0.05134 -0.22916,-0.07835 0.0755,0.02692 0.15229,0.05285 0.22916,0.07835 z m -0.22916,-0.07835 c -0.31297,-0.10967 -0.62739,-0.217878 -0.94327,-0.32317 0.31588,0.105293 0.6303,0.213503 0.94327,0.32317 z m -1.06314,-0.361425 c -0.35268,-0.11659 -0.70573,-0.232084 -1.06278,-0.3443 0.35705,0.112216 0.7101,0.22771 1.06278,0.3443 z"
         style="fill:#009ee0;fill-opacity:1;fill-rule:evenodd;stroke:none"
         id="path18"
         inkscape:connector-curvature="0" /><path
         d="m 130.60688,82.748231 19.40099,0 0,-5.543399 -19.40099,0 0,5.543399 z"
         style="fill:#009ee0;fill-opacity:1;fill-rule:nonzero;stroke:none"
         id="path20"
         inkscape:connector-curvature="0" /><path
         d="m 134.70131,62.841903 c -4.89124,-2.395165 -10.85582,-3.950522 -17.56911,-4.730568 0.74726,-1.114511 1.33639,-2.121907 1.33639,-2.121907 l 2.44653,-4.592839 c 6.34312,1.878886 12.09129,4.49447 17.00402,7.683887 l -0.37126,0.62775 c 0,0 -0.42409,0.93489 -1.29376,1.858492 -0.46526,0.494044 -1.02307,0.923961 -1.55281,1.275185 z"
         style="fill:#a4c400;fill-opacity:1;fill-rule:evenodd;stroke:none"
         id="path22"
         inkscape:connector-curvature="0" /><text
         transform="scale(1,-1)"
         style="font-variant:normal;font-weight:bold;font-size:52.46467209px;font-family:Arial;-inkscape-font-specification:Arial-BoldMT;writing-mode:lr-tb;fill:#003a80;fill-opacity:1;fill-rule:nonzero;stroke:none"
         id="text24"
         x="19.05007"
         y="-36.382011"><tspan
           x="19.05007"
           y="-36.382011"
           id="tspan26">a</tspan></text>
<text
         transform="scale(1,-1)"
         style="font-variant:normal;font-weight:bold;font-size:52.46467209px;font-family:Arial;-inkscape-font-specification:Arial-BoldMT;writing-mode:lr-tb;fill:#003a80;fill-opacity:1;fill-rule:nonzero;stroke:none"
         id="text32"
         x="48.254047"
         y="-36.382011"><tspan
           x="48.254047"
           y="-36.382011"
           id="tspan34">i</tspan></text>
<g
         id="g36"
         transform="matrix(0.364338,0,0,-0.364338,15.053432,133.04401)"><path
           d="m 101.469,180.512 0,-18.282 19.75,0 0,18.282 -19.75,0 z m 0,84.797 0,-74.672 19.75,0 0,74.672 -19.75,0 z"
           style="fill:none;stroke:#003a80;stroke-width:0.80000001;stroke-linecap:butt;stroke-linejoin:miter;stroke-miterlimit:4;stroke-dasharray:none;stroke-opacity:1"
           id="path38"
           inkscape:connector-curvature="0" /></g><text
         transform="scale(1,-1)"
         style="font-variant:normal;font-weight:bold;font-size:52.46467209px;font-family:Arial;-inkscape-font-specification:Arial-BoldMT;writing-mode:lr-tb;fill:#003a80;fill-opacity:1;fill-rule:nonzero;stroke:none"
         id="text40"
         x="62.804798"
         y="-36.382011"><tspan
           x="62.804798"
           y="-36.382011"
           id="tspan42">r</tspan></text>
<g
         id="g44"
         transform="matrix(0.364338,0,0,-0.364338,15.053432,133.04401)"><path
           d="m 160.313,265.309 -19.75,0 0,-74.672 18.343,0 0,10.609 c 3.145,-5.008 5.969,-8.312 8.469,-9.906 2.508,-1.594 5.359,-2.391 8.547,-2.391 4.5,0 8.836,1.242 13.016,3.719 l -6.125,17.234 c -3.325,-2.156 -6.418,-3.234 -9.282,-3.234 -2.761,0 -5.105,0.762 -7.031,2.281 -1.918,1.524 -3.43,4.278 -4.531,8.266 -1.106,3.98 -1.656,12.324 -1.656,25.031 l 0,23.063 z"
           style="fill:none;stroke:#003a80;stroke-width:0.80000001;stroke-linecap:butt;stroke-linejoin:miter;stroke-miterlimit:4;stroke-dasharray:none;stroke-opacity:1"
           id="path46"
           inkscape:connector-curvature="0" /></g></g></g></svg>